<svg class="hidden sm:inline h-8" viewBox="0 0 32 32" aria-hidden="true">
	<path
		d="M6.33447 19.8829L25.8545 13.3649C25.4645 10.9249 25.1865 9.29494 24.8645 8.05094C24.5175 6.71294 24.2425 6.35494 24.1345 6.23094C23.7581 5.80015 23.2895 5.45972 22.7635 5.23494C22.6115 5.16994 22.1855 5.01894 20.8075 5.10194C19.3495 5.18994 17.4355 5.48794 14.4045 5.96794C11.3745 6.44794 9.46147 6.75694 8.04847 7.12294C6.71147 7.46994 6.35247 7.74594 6.22847 7.85394C5.79847 8.23094 5.45847 8.69894 5.23347 9.22494C5.16847 9.37694 5.01747 9.80294 5.10047 11.1819C5.18847 12.6399 5.48647 14.5549 5.96647 17.5859C6.10047 18.4359 6.22147 19.1959 6.33447 19.8829Z"
		class="fill-sky-300 forced-colors:fill-[CanvasText]"
		fill='#7dd3fc'></path>
	<path fill-rule="evenodd" clip-rule="evenodd"
		d="M0.952696 18.3799C0.0246956 12.5159 -0.440304 9.58392 0.565696 7.22992C1.09011 6.0022 1.88446 4.90844 2.8897 4.02992C4.8167 2.34692 7.7477 1.88292 13.6097 0.953917C19.4737 0.0239174 22.4057 -0.440083 24.7597 0.565917C25.9867 1.0905 27.0798 1.88484 27.9577 2.88992C29.6417 4.81792 30.1057 7.74992 31.0337 13.6149C31.9627 19.4789 32.4267 22.4119 31.4207 24.7649C30.8966 25.9926 30.1026 27.0863 29.0977 27.9649C27.1707 29.6489 24.2387 30.1129 18.3757 31.0419C12.5137 31.9709 9.5817 32.4349 7.2287 31.4289C6.00166 30.9043 4.9086 30.11 4.0307 29.1049C2.3467 27.1769 1.8817 24.2449 0.952696 18.3799ZM11.2937 28.7939C12.8637 28.6989 14.8857 28.3819 17.8787 27.9079C20.8727 27.4339 22.8917 27.1099 24.4157 26.7149C25.8907 26.3319 26.5707 25.9589 27.0097 25.5749C27.6556 25.0101 28.1659 24.307 28.5027 23.5179C28.7327 22.9819 28.8777 22.2199 28.7857 20.6979C28.6907 19.1279 28.3737 17.1049 27.8997 14.1109C27.4257 11.1169 27.1027 9.09592 26.7077 7.57292C26.3247 6.09692 25.9507 5.41692 25.5677 4.97792C25.0033 4.33179 24.3006 3.82114 23.5117 3.48392C22.9757 3.25392 22.2137 3.10892 20.6917 3.20092C19.1217 3.29592 17.1007 3.61292 14.1077 4.08692C11.1137 4.56192 9.0937 4.88492 7.5707 5.27992C6.0947 5.66292 5.4157 6.03692 4.9767 6.41992C4.33049 6.98465 3.81985 7.68772 3.4827 8.47692C3.2537 9.01292 3.1087 9.77492 3.2007 11.2969C3.2957 12.8679 3.6117 14.8899 4.0867 17.8839C4.5607 20.8779 4.8837 22.8989 5.2787 24.4219C5.6617 25.8979 6.0347 26.5779 6.4187 27.0169C6.98311 27.663 7.68585 28.1737 8.4747 28.5109C9.0107 28.7409 9.7707 28.8859 11.2937 28.7939Z"
		class="fill-sky-300 forced-colors:fill-[CanvasText]"
		fill='#7dd3fc'></path>
</svg>