<svg class="hidden sm:inline h-8" viewBox="0 0 174 32" aria-hidden="true"><path d="M6.33447 19.8829L25.8545 13.3649C25.4645 10.9249 25.1865 9.29494 24.8645 8.05094C24.5175 6.71294 24.2425 6.35494 24.1345 6.23094C23.7581 5.80015 23.2895 5.45972 22.7635 5.23494C22.6115 5.16994 22.1855 5.01894 20.8075 5.10194C19.3495 5.18994 17.4355 5.48794 14.4045 5.96794C11.3745 6.44794 9.46147 6.75694 8.04847 7.12294C6.71147 7.46994 6.35247 7.74594 6.22847 7.85394C5.79847 8.23094 5.45847 8.69894 5.23347 9.22494C5.16847 9.37694 5.01747 9.80294 5.10047 11.1819C5.18847 12.6399 5.48647 14.5549 5.96647 17.5859C6.10047 18.4359 6.22147 19.1959 6.33447 19.8829Z" class="fill-sky-300 forced-colors:fill-[CanvasText]"></path><path fill-rule="evenodd" clip-rule="evenodd" d="M0.952696 18.3799C0.0246956 12.5159 -0.440304 9.58392 0.565696 7.22992C1.09011 6.0022 1.88446 4.90844 2.8897 4.02992C4.8167 2.34692 7.7477 1.88292 13.6097 0.953917C19.4737 0.0239174 22.4057 -0.440083 24.7597 0.565917C25.9867 1.0905 27.0798 1.88484 27.9577 2.88992C29.6417 4.81792 30.1057 7.74992 31.0337 13.6149C31.9627 19.4789 32.4267 22.4119 31.4207 24.7649C30.8966 25.9926 30.1026 27.0863 29.0977 27.9649C27.1707 29.6489 24.2387 30.1129 18.3757 31.0419C12.5137 31.9709 9.5817 32.4349 7.2287 31.4289C6.00166 30.9043 4.9086 30.11 4.0307 29.1049C2.3467 27.1769 1.8817 24.2449 0.952696 18.3799ZM11.2937 28.7939C12.8637 28.6989 14.8857 28.3819 17.8787 27.9079C20.8727 27.4339 22.8917 27.1099 24.4157 26.7149C25.8907 26.3319 26.5707 25.9589 27.0097 25.5749C27.6556 25.0101 28.1659 24.307 28.5027 23.5179C28.7327 22.9819 28.8777 22.2199 28.7857 20.6979C28.6907 19.1279 28.3737 17.1049 27.8997 14.1109C27.4257 11.1169 27.1027 9.09592 26.7077 7.57292C26.3247 6.09692 25.9507 5.41692 25.5677 4.97792C25.0033 4.33179 24.3006 3.82114 23.5117 3.48392C22.9757 3.25392 22.2137 3.10892 20.6917 3.20092C19.1217 3.29592 17.1007 3.61292 14.1077 4.08692C11.1137 4.56192 9.0937 4.88492 7.5707 5.27992C6.0947 5.66292 5.4157 6.03692 4.9767 6.41992C4.33049 6.98465 3.81985 7.68772 3.4827 8.47692C3.2537 9.01292 3.1087 9.77492 3.2007 11.2969C3.2957 12.8679 3.6117 14.8899 4.0867 17.8839C4.5607 20.8779 4.8837 22.8989 5.2787 24.4219C5.6617 25.8979 6.0347 26.5779 6.4187 27.0169C6.98311 27.663 7.68585 28.1737 8.4747 28.5109C9.0107 28.7409 9.7707 28.8859 11.2937 28.7939Z" class="fill-sky-300 forced-colors:fill-[CanvasText]"></path><path fill-rule="evenodd" clip-rule="evenodd" d="M109.707 6.02002V25H112.515V6.02002H109.707ZM153.582 18.9681C153.582 22.8941 156.468 25.338 160.472 25.338C164.45 25.338 167.362 22.8941 167.362 18.9681V6.80005H164.372V18.786C164.372 20.918 163.15 22.4261 160.472 22.4261C157.794 22.4261 156.572 20.918 156.572 18.786V6.80005H153.582V18.9681ZM173.791 6.80005H170.801V25H173.791V6.80005ZM144.119 15.5881C144.119 16.5634 145.308 16.8937 146.705 17.282C148.697 17.8355 151.113 18.5069 151.113 21.3341C151.113 23.9341 148.851 25.3381 146.043 25.3381C143.443 25.3381 141.571 24.1681 140.739 22.2961L143.157 20.8921C143.573 22.0621 144.613 22.7641 146.043 22.7641C147.291 22.7641 148.253 22.3481 148.253 21.3081C148.253 20.3512 147.057 20.0123 145.654 19.6148C143.665 19.0511 141.259 18.3695 141.259 15.6401C141.259 13.1961 143.365 11.6621 146.017 11.6621C148.149 11.6621 149.917 12.6501 150.827 14.3661L148.461 15.6921C147.993 14.6781 147.083 14.2101 146.017 14.2101C145.003 14.2101 144.119 14.6521 144.119 15.5881ZM135.508 17.282C134.111 16.8937 132.922 16.5634 132.922 15.5881C132.922 14.6521 133.806 14.2101 134.82 14.2101C135.886 14.2101 136.796 14.6781 137.264 15.6921L139.63 14.3661C138.72 12.6501 136.952 11.6621 134.82 11.6621C132.168 11.6621 130.062 13.1961 130.062 15.6401C130.062 18.3695 132.468 19.0511 134.457 19.6148C135.86 20.0123 137.056 20.3512 137.056 21.3081C137.056 22.3481 136.094 22.7641 134.846 22.7641C133.416 22.7641 132.376 22.0621 131.96 20.8921L129.542 22.2961C130.374 24.1681 132.246 25.3381 134.846 25.3381C137.654 25.3381 139.916 23.9341 139.916 21.3341C139.916 18.5069 137.5 17.8355 135.508 17.282ZM117.985 19.6961C118.427 21.7241 120.065 22.7641 122.145 22.7641C123.705 22.7641 124.875 22.0621 125.499 21.1521L127.813 22.5041C126.617 24.2721 124.667 25.3381 122.119 25.3381C117.829 25.3381 115.047 22.4001 115.047 18.5001C115.047 14.6521 117.829 11.6621 121.911 11.6621C125.785 11.6621 128.437 14.7821 128.437 18.5261C128.437 18.9161 128.385 19.3321 128.333 19.6961H117.985ZM117.959 17.4081H125.603C125.213 15.1721 123.575 14.2101 121.885 14.2101C119.779 14.2101 118.349 15.4581 117.959 17.4081ZM103.626 6.80005H106.434V25H103.626V23.128C102.638 24.5061 101.104 25.338 99.0756 25.338C95.5396 25.338 92.6016 22.348 92.6016 18.5C92.6016 14.626 95.5396 11.662 99.0756 11.662C101.104 11.662 102.638 12.494 103.626 13.846V6.80005ZM99.5176 22.66C101.858 22.66 103.626 20.918 103.626 18.5C103.626 16.082 101.858 14.34 99.5176 14.34C97.1776 14.34 95.4096 16.082 95.4096 18.5C95.4096 20.918 97.1776 22.66 99.5176 22.66ZM90.0566 12.0001H87.2486V13.8461C86.2606 12.4941 84.7266 11.6621 82.6986 11.6621C79.1626 11.6621 76.2246 14.6261 76.2246 18.5001C76.2246 22.3481 79.1626 25.3381 82.6986 25.3381C84.7266 25.3381 86.2606 24.5061 87.2486 23.1281V25.0001H90.0566V12.0001ZM87.2486 18.5001C87.2486 20.9181 85.4806 22.6601 83.1406 22.6601C80.8006 22.6601 79.0326 20.9181 79.0326 18.5001C79.0326 16.0821 80.8006 14.3401 83.1406 14.3401C85.4806 14.3401 87.2486 16.0821 87.2486 18.5001ZM64.106 19.6961C64.548 21.7241 66.186 22.7641 68.266 22.7641C69.826 22.7641 70.996 22.0621 71.62 21.1521L73.934 22.5041C72.738 24.2721 70.788 25.3381 68.24 25.3381C63.95 25.3381 61.168 22.4001 61.168 18.5001C61.168 14.6521 63.95 11.6621 68.032 11.6621C71.906 11.6621 74.558 14.7821 74.558 18.5261C74.558 18.9161 74.506 19.3321 74.454 19.6961H64.106ZM64.08 17.4081H71.724C71.334 15.1721 69.696 14.2101 68.006 14.2101C65.9 14.2101 64.47 15.4581 64.08 17.4081ZM58.4402 6.80005H55.4502V14.262H47.6502V6.80005H44.6602V25H47.6502V17.122H55.4502V25H58.4402V6.80005Z" class="fill-white"></path></svg>